<?xml version="1.0" encoding="utf-8"?>
<!-- Generator: Adobe Illustrator 22.1.0, SVG Export Plug-In . SVG Version: 6.00 Build 0)  -->
<svg version="1.1" id="Слой_1" xmlns="http://www.w3.org/2000/svg" xmlns:xlink="http://www.w3.org/1999/xlink" x="0px" y="0px"
	 viewBox="0 0 46.6 45.3" style="enable-background:new 0 0 46.6 45.3;" xml:space="preserve">
<style type="text/css">
	.st0{fill:url(#SVGID_1_);}
	.st1{fill:url(#SVGID_2_);}
	.st2{fill:url(#SVGID_3_);}
	.st3{fill:url(#SVGID_4_);}
	.st4{fill:url(#SVGID_5_);}
	.st5{fill:url(#SVGID_6_);}
</style>
<g>
	<linearGradient id="SVGID_1_" gradientUnits="userSpaceOnUse" x1="21.8027" y1="23.486" x2="34.2178" y2="23.486">
		<stop  offset="0" style="stop-color:#FF4148"/>
		<stop  offset="1" style="stop-color:#FF793A"/>
	</linearGradient>
	<path class="st0" d="M34,17.5c-0.3-0.3-0.8-0.3-1.1,0L28.4,22c-0.7-0.5-1.4-0.7-2.3-0.7c-1.1,0-2.2,0.5-3,1.3s-1.3,1.8-1.3,3
		s0.5,2.2,1.3,3s1.8,1.3,3,1.3s2.2-0.5,3-1.3s1.3-1.8,1.3-3c0-0.9-0.2-1.8-0.8-2.4l4.4-4.4C34.3,18.3,34.3,17.8,34,17.5z M28,27.3
		c-1,1-2.7,1-3.8,0c-0.5-0.5-0.8-1.2-0.8-1.8c0-0.7,0.2-1.4,0.8-1.8c1-1,2.7-1,3.8,0c0.5,0.5,0.8,1.2,0.8,1.8
		C28.7,26.2,28.5,26.9,28,27.3z"/>
	<linearGradient id="SVGID_2_" gradientUnits="userSpaceOnUse" x1="3.3666" y1="24.7685" x2="18.8369" y2="24.7685">
		<stop  offset="0" style="stop-color:#FF4148"/>
		<stop  offset="1" style="stop-color:#FF793A"/>
	</linearGradient>
	<path class="st1" d="M3.4,24.8c0,0.5,0.3,0.8,0.8,0.8H18c0.5,0,0.8-0.3,0.8-0.8c0-0.5-0.3-0.8-0.8-0.8H4.2
		C3.7,24,3.4,24.3,3.4,24.8z"/>
	<linearGradient id="SVGID_3_" gradientUnits="userSpaceOnUse" x1="0" y1="18.0353" x2="15.4703" y2="18.0353">
		<stop  offset="0" style="stop-color:#FF4148"/>
		<stop  offset="1" style="stop-color:#FF793A"/>
	</linearGradient>
	<path class="st2" d="M0.8,18.8h13.9c0.5,0,0.8-0.3,0.8-0.8s-0.3-0.8-0.8-0.8H0.8C0.3,17.2,0,17.6,0,18S0.3,18.8,0.8,18.8z"/>
	<linearGradient id="SVGID_4_" gradientUnits="userSpaceOnUse" x1="0" y1="31.5017" x2="15.4703" y2="31.5017">
		<stop  offset="0" style="stop-color:#FF4148"/>
		<stop  offset="1" style="stop-color:#FF793A"/>
	</linearGradient>
	<path class="st3" d="M15.5,31.5c0-0.5-0.3-0.8-0.8-0.8H0.8C0.3,30.7,0,31,0,31.5c0,0.5,0.3,0.8,0.8,0.8h13.9
		C15.1,32.3,15.5,32,15.5,31.5z"/>
	<linearGradient id="SVGID_5_" gradientUnits="userSpaceOnUse" x1="11.4624" y1="22.6443" x2="46.5712" y2="22.6443">
		<stop  offset="0" style="stop-color:#FF4148"/>
		<stop  offset="1" style="stop-color:#FF793A"/>
	</linearGradient>
	<path class="st4" d="M40.8,11.1l0.8-0.8c0.4,0.2,0.8,0.3,1.3,0.3c1.5,0,2.7-1.2,2.7-2.7S44.5,5.1,43,5.1c-1.5,0-2.7,1.2-2.7,2.7
		c0,0.4,0.1,0.9,0.3,1.2l-0.9,0.9C36.3,7,32,5.1,27.2,5V1.6h2.9c0.5,0,0.8-0.3,0.8-0.8S30.5,0,30.1,0h-7.3C22.3,0,22,0.3,22,0.8
		s0.3,0.8,0.8,0.8h2.8V5c-5.3,0.2-10.2,2.4-13.9,6.3c-0.3,0.3-0.3,0.8,0,1.1c0.3,0.3,0.8,0.3,1.1,0c3.6-3.8,8.4-5.9,13.5-5.9
		c4.9,0,9.4,1.9,12.7,5l0,0l0,0C42.7,15,45,19.8,45,25.1c0,10.3-8.3,18.6-18.6,18.6c-5,0-9.6-1.9-13.1-5.5c-0.3-0.3-0.8-0.3-1.1,0
		c-0.3,0.3-0.3,0.8,0,1.1c3.8,3.8,8.9,5.9,14.3,5.9c11.1,0,20.2-9.1,20.2-20.2C46.6,19.6,44.4,14.7,40.8,11.1z M43,6.7
		c0.6,0,1.1,0.5,1.1,1.1C44.1,8.5,43.6,9,43,9c-0.2,0-0.5-0.1-0.7-0.2c0-0.1-0.1-0.1-0.1-0.2c0,0-0.1-0.1-0.2-0.1
		c-0.2-0.2-0.2-0.4-0.2-0.6C41.8,7.2,42.3,6.7,43,6.7z"/>
	<linearGradient id="SVGID_6_" gradientUnits="userSpaceOnUse" x1="16.2923" y1="25.1693" x2="43.2847" y2="25.1693">
		<stop  offset="0" style="stop-color:#FF4148"/>
		<stop  offset="1" style="stop-color:#FF793A"/>
	</linearGradient>
	<path class="st5" d="M16.7,37.9c-0.2,0.4-0.2,0.9,0.2,1.1c2.8,1.9,6.1,3,9.5,3c9.3,0,16.8-7.5,16.8-16.8S35.7,8.3,26.5,8.3
		c-3.5,0-7,1.1-9.9,3.2c-0.3,0.2-0.4,0.8-0.2,1.1c0.2,0.3,0.7,0.4,1.1,0.2c2.6-1.9,5.7-2.9,8.9-2.9c8.4,0,15.2,6.8,15.2,15.2
		s-6.8,15.2-15.2,15.2c-3.1,0-6.1-0.9-8.6-2.6C17.4,37.5,16.9,37.6,16.7,37.9z"/>
</g>
</svg>
