<?xml version="1.0" encoding="utf-8"?>
<!-- Generator: Adobe Illustrator 22.1.0, SVG Export Plug-In . SVG Version: 6.00 Build 0)  -->
<svg version="1.1" id="Слой_1" xmlns="http://www.w3.org/2000/svg" xmlns:xlink="http://www.w3.org/1999/xlink" x="0px" y="0px"
	 viewBox="0 0 46.4 45.5" style="enable-background:new 0 0 46.4 45.5;" xml:space="preserve">
<style type="text/css">
	.st0{fill:url(#SVGID_1_);}
	.st1{fill:url(#SVGID_2_);}
	.st2{fill:url(#SVGID_3_);}
	.st3{fill:url(#SVGID_4_);}
	.st4{fill:url(#SVGID_5_);}
</style>
<g>
	<linearGradient id="SVGID_1_" gradientUnits="userSpaceOnUse" x1="-9.094947e-13" y1="24.6233" x2="41.8752" y2="24.6233">
		<stop  offset="0" style="stop-color:#FF4148"/>
		<stop  offset="1" style="stop-color:#FF793A"/>
	</linearGradient>
	<path class="st0" d="M37.6,13.9l2.1-6.3c0.2-0.5,0-1.1-0.3-1.5c-0.4-0.4-1-0.5-1.5-0.3l-6.3,2.1l-5.3-4c-0.4-0.3-1-0.4-1.5-0.1
		c-0.5,0.2-0.8,0.8-0.8,1.3l0.1,6.6l-5.4,3.8c-0.4,0.3-0.7,0.9-0.6,1.4c0.1,0.5,0.5,1,1,1.1l2.7,0.8L1,39.8c-1.3,1.3-1.3,3.4,0,4.8
		l0,0c1.3,1.3,3.4,1.3,4.8,0l20.9-20.9l0.8,2.7c0.2,0.5,0.6,0.9,1.1,1c0.1,0,0.2,0,0.2,0c0.5,0,0.9-0.2,1.2-0.6l3.8-5.4l6.6,0.1
		c0.5,0,1-0.3,1.3-0.8c0.2-0.5,0.2-1.1-0.1-1.5L37.6,13.9z M4.6,43.4c-0.7,0.7-1.8,0.7-2.4,0l0,0c-0.7-0.7-0.7-1.8,0-2.4L9,34.1
		l2.4,2.4L4.6,43.4z M12.6,35.4L10.2,33l13.5-13.5l1.9,0.6l0.6,1.9L12.6,35.4z M33.7,19.8c-0.5,0-0.9,0.2-1.2,0.6l-3.6,5.1l-1.9-6
		c-0.1-0.5-0.5-0.8-0.9-0.9l-6-1.9l5.1-3.6c0.4-0.3,0.6-0.7,0.6-1.2l-0.1-6.3l5.1,3.8c0.4,0.3,0.9,0.4,1.3,0.2l6-2l-2,6
		c-0.2,0.4-0.1,0.9,0.2,1.3l3.8,5.1L33.7,19.8z"/>
	<linearGradient id="SVGID_2_" gradientUnits="userSpaceOnUse" x1="12.1451" y1="8.5353" x2="17.3705" y2="8.5353">
		<stop  offset="0" style="stop-color:#FF4148"/>
		<stop  offset="1" style="stop-color:#FF793A"/>
	</linearGradient>
	<path class="st1" d="M12.7,8.8l1,0.3l-0.3,1c-0.1,0.4,0.1,0.9,0.6,1c0.4,0.1,0.9-0.1,1-0.6l0.3-1l1,0.3c0.4,0.1,0.9-0.1,1-0.6
		c0.1-0.4-0.1-0.9-0.6-1l-1-0.3L16,7c0.1-0.4-0.1-0.9-0.6-1c-0.4-0.1-0.9,0.1-1,0.6l-0.3,1l-1-0.3c-0.4-0.1-0.9,0.1-1,0.6
		C12.1,8.3,12.3,8.7,12.7,8.8L12.7,8.8z"/>
	<linearGradient id="SVGID_3_" gradientUnits="userSpaceOnUse" x1="35.0894" y1="35.6009" x2="39.3276" y2="35.6009">
		<stop  offset="0" style="stop-color:#FF4148"/>
		<stop  offset="1" style="stop-color:#FF793A"/>
	</linearGradient>
	<path class="st2" d="M38.7,35.2L38.2,35l0.1-0.5c0.1-0.4-0.1-0.9-0.6-1c-0.4-0.1-0.9,0.1-1,0.6l-0.1,0.5l-0.5-0.1
		c-0.4-0.1-0.9,0.1-1,0.6c-0.1,0.4,0.1,0.9,0.6,1l0.5,0.1l-0.1,0.5c-0.1,0.3,0,0.6,0.2,0.8c0.2,0.2,0.5,0.3,0.8,0.2s0.5-0.3,0.6-0.6
		l0.1-0.5l0.5,0.1c0.4,0.1,0.9-0.1,1-0.6C39.4,35.7,39.2,35.3,38.7,35.2z"/>
	<linearGradient id="SVGID_4_" gradientUnits="userSpaceOnUse" x1="41.3028" y1="12.8403" x2="46.431" y2="12.8403">
		<stop  offset="0" style="stop-color:#FF4148"/>
		<stop  offset="1" style="stop-color:#FF793A"/>
	</linearGradient>
	<path class="st3" d="M45.8,12.5l-1-0.3l0.3-1c0.1-0.4-0.1-0.9-0.6-1c-0.4-0.1-0.9,0.1-1,0.6l-0.3,1l-1-0.3c-0.3-0.1-0.6,0-0.8,0.2
		c-0.2,0.2-0.3,0.5-0.2,0.8c0.1,0.3,0.3,0.5,0.6,0.6l1,0.3l-0.3,1c-0.1,0.4,0.1,0.9,0.6,1c0.4,0.1,0.9-0.1,1-0.6l0.3-1l1,0.3
		c0.4,0.1,0.9-0.1,1-0.6C46.5,13.1,46.3,12.7,45.8,12.5L45.8,12.5z"/>
	<linearGradient id="SVGID_5_" gradientUnits="userSpaceOnUse" x1="30.2037" y1="2.2847" x2="34.7952" y2="2.2847">
		<stop  offset="0" style="stop-color:#FF4148"/>
		<stop  offset="1" style="stop-color:#FF793A"/>
	</linearGradient>
	<path class="st4" d="M30.8,2.7l0.7,0.2l-0.2,0.7c-0.1,0.3,0,0.6,0.2,0.8s0.5,0.3,0.8,0.2c0.3-0.1,0.5-0.3,0.6-0.6l0.2-0.7l0.7,0.2
		c0.3,0.1,0.6,0,0.8-0.2c0.2-0.2,0.3-0.5,0.2-0.8S34.5,2,34.2,1.9l-0.7-0.2L33.7,1c0.1-0.4-0.1-0.9-0.6-1c-0.4-0.1-0.9,0.1-1,0.6
		l-0.2,0.7l-0.7-0.2c-0.3-0.1-0.6,0-0.8,0.2c-0.2,0.2-0.3,0.5-0.2,0.8C30.3,2.4,30.5,2.6,30.8,2.7L30.8,2.7z"/>
</g>
</svg>
