<?xml version="1.0" encoding="utf-8"?>
<!-- Generator: Adobe Illustrator 22.1.0, SVG Export Plug-In . SVG Version: 6.00 Build 0)  -->
<svg version="1.1" id="Слой_1" xmlns="http://www.w3.org/2000/svg" xmlns:xlink="http://www.w3.org/1999/xlink" x="0px" y="0px"
	 viewBox="0 0 45.4 45.4" style="enable-background:new 0 0 45.4 45.4;" xml:space="preserve">
<style type="text/css">
	.st0{fill:url(#SVGID_1_);}
	.st1{fill:url(#SVGID_2_);}
</style>
<g>
	<linearGradient id="SVGID_1_" gradientUnits="userSpaceOnUse" x1="18.542" y1="22.7349" x2="26.9106" y2="22.7349">
		<stop  offset="0" style="stop-color:#FF4148"/>
		<stop  offset="1" style="stop-color:#FF793A"/>
	</linearGradient>
	<path class="st0" d="M22.7,18.6c-2.3,0-4.2,1.9-4.2,4.2s1.9,4.2,4.2,4.2c2.3,0,4.2-1.9,4.2-4.2v0C26.9,20.4,25,18.6,22.7,18.6z
		 M25,22.7c0,1.3-1,2.3-2.3,2.3c-1.3,0-2.3-1-2.3-2.3c0-1.3,1-2.3,2.3-2.3C24,20.5,25,21.5,25,22.7z"/>
	<linearGradient id="SVGID_2_" gradientUnits="userSpaceOnUse" x1="0" y1="22.7222" x2="45.4443" y2="22.7222">
		<stop  offset="0" style="stop-color:#FF4148"/>
		<stop  offset="1" style="stop-color:#FF793A"/>
	</linearGradient>
	<path class="st1" d="M44.5,21.8h-3.9c-0.5-9.2-7.7-16.4-16.9-16.9V1c0-0.5-0.4-1-1-1c-0.5,0-1,0.4-1,1v3.9
		C12.6,5.4,5.4,12.6,4.9,21.8H1c-0.5,0-1,0.4-1,1s0.4,1,1,1h3.9c0.5,9.2,7.7,16.4,16.9,16.9v3.9c0,0.5,0.4,1,1,1c0.5,0,1-0.4,1-1
		v-3.9c9.2-0.5,16.4-7.7,16.9-16.9h3.9c0.5,0,1-0.4,1-1S45,21.8,44.5,21.8z M33.9,22.7c0,0.5,0.4,1,1,1h3.8c-0.5,8.1-6.9,14.5-15,15
		v-3.8c0-0.5-0.4-1-1-1c-0.5,0-1,0.4-1,1v3.8c-8.1-0.5-14.5-6.9-15-15h3.8c0.5,0,1-0.4,1-1s-0.4-1-1-1H6.8c0.5-8.1,6.9-14.5,15-15
		v3.8c0,0.5,0.4,1,1,1c0.5,0,1-0.4,1-1V6.8c8.1,0.5,14.5,6.9,15,15h-3.8C34.3,21.8,33.9,22.2,33.9,22.7z"/>
</g>
</svg>
